<svg width="22" height="23" viewBox="0 0 22 23" fill="none" xmlns="http://www.w3.org/2000/svg">
<path fill-rule="evenodd" clip-rule="evenodd" d="M21.2747 15.6585C21.3462 15.7257 21.4029 15.8055 21.4416 15.8933C21.4803 15.9812 21.5002 16.0753 21.5002 16.1704C21.5002 16.2655 21.4803 16.3597 21.4416 16.4475C21.4029 16.5354 21.3462 16.6152 21.2747 16.6823L15.1321 22.4664C14.988 22.6022 14.7924 22.6785 14.5885 22.6785C14.3846 22.6785 14.1891 22.6022 14.0449 22.4664C13.9007 22.3307 13.8197 22.1465 13.8197 21.9545C13.8197 21.7625 13.9007 21.5784 14.0449 21.4426L18.8775 16.8935L3.83908 16.8935C2.8209 16.8935 1.84441 16.5126 1.12444 15.8346C0.404473 15.1567 -3.91846e-07 14.2372 -4.36353e-07 13.2784L-9.7335e-07 1.7102C-9.82252e-07 1.51844 0.0808937 1.33454 0.224887 1.19895C0.368881 1.06336 0.564178 0.987185 0.767816 0.987184C0.971454 0.987184 1.16675 1.06336 1.31074 1.19895C1.45474 1.33454 1.53563 1.51844 1.53563 1.7102L1.53563 13.2784C1.53563 13.8537 1.77832 14.4054 2.2103 14.8121C2.64228 15.2189 3.22817 15.4474 3.83908 15.4474L18.8775 15.4474L14.0449 10.8982C13.9007 10.7625 13.8197 10.5783 13.8197 10.3863C13.8197 10.1943 13.9007 10.0102 14.0449 9.87445C14.1891 9.73869 14.3846 9.66242 14.5885 9.66242C14.7924 9.66242 14.988 9.73869 15.1321 9.87445L21.2747 15.6585Z" fill="black" fill-opacity="0.75"/>
</svg>
